<svg width="20" height="20" viewBox="0 0 20 20" fill="none" xmlns="http://www.w3.org/2000/svg">
<g clip-path="url(#clip0_437_7885)">
<mask id="mask0_437_7885" style="mask-type:alpha" maskUnits="userSpaceOnUse" x="0" y="0" width="20" height="20">
<rect width="20" height="20" fill="#D9D9D9"/>
</mask>
<g mask="url(#mask0_437_7885)">
<path d="M9.25 14.5625L7.10417 16.7083C6.95139 16.8611 6.77431 16.9375 6.57292 16.9375C6.37153 16.9375 6.19444 16.8611 6.04167 16.7083C5.88889 16.5556 5.8125 16.3785 5.8125 16.1771C5.8125 15.9757 5.88889 15.7986 6.04167 15.6458L9.25 12.4583V10.75H7.54167L4.33333 13.9583C4.18056 14.1111 4.00347 14.1875 3.80208 14.1875C3.60069 14.1875 3.42361 14.1111 3.27083 13.9583C3.11806 13.8056 3.04167 13.6285 3.04167 13.4271C3.04167 13.2257 3.11806 13.0486 3.27083 12.8958L5.4375 10.75H2.72917C2.53472 10.75 2.36458 10.6771 2.21875 10.5312C2.07292 10.3854 2 10.2083 2 10C2 9.80556 2.07292 9.63194 2.21875 9.47917C2.36458 9.32639 2.54167 9.25 2.75 9.25H5.4375L3.29167 7.125C3.13889 6.97222 3.0625 6.79514 3.0625 6.59375C3.0625 6.39236 3.13889 6.21528 3.29167 6.0625C3.44444 5.90972 3.62153 5.83333 3.82292 5.83333C4.02431 5.83333 4.20139 5.90972 4.35417 6.0625L7.54167 9.25H9.25V7.54167L6.04167 4.375C5.88889 4.22222 5.8125 4.04514 5.8125 3.84375C5.8125 3.64236 5.88889 3.46528 6.04167 3.3125C6.19444 3.15972 6.37153 3.08333 6.57292 3.08333C6.77431 3.08333 6.95139 3.15972 7.10417 3.3125L9.25 5.4375V2.75C9.25 2.55556 9.32292 2.38194 9.46875 2.22917C9.61458 2.07639 9.79167 2 10 2C10.1944 2 10.3681 2.07639 10.5208 2.22917C10.6736 2.38194 10.75 2.55556 10.75 2.75V5.4375L12.875 3.29167C13.0278 3.13889 13.2049 3.0625 13.4062 3.0625C13.6076 3.0625 13.7847 3.13889 13.9375 3.29167C14.0903 3.44444 14.1667 3.62153 14.1667 3.82292C14.1667 4.02431 14.0903 4.20139 13.9375 4.35417L10.75 7.54167V9.25H12.4583L15.625 6.0625C15.7778 5.90972 15.9549 5.83333 16.1562 5.83333C16.3576 5.83333 16.5347 5.90972 16.6875 6.0625C16.8403 6.21528 16.9167 6.39236 16.9167 6.59375C16.9167 6.79514 16.8403 6.97222 16.6875 7.125L14.5625 9.25H17.25C17.4444 9.25 17.6181 9.32639 17.7708 9.47917C17.9236 9.63194 18 9.80556 18 10C18 10.2083 17.9236 10.3854 17.7708 10.5312C17.6181 10.6771 17.4444 10.75 17.25 10.75H14.5625L16.7083 12.8958C16.8611 13.0486 16.9375 13.2257 16.9375 13.4271C16.9375 13.6285 16.8611 13.8056 16.7083 13.9583C16.5556 14.1111 16.3785 14.1875 16.1771 14.1875C15.9757 14.1875 15.7986 14.1111 15.6458 13.9583L12.4583 10.75H10.75V12.4583L13.9375 15.6667C14.0903 15.8194 14.1667 15.9965 14.1667 16.1979C14.1667 16.3993 14.0903 16.5764 13.9375 16.7292C13.7847 16.8819 13.6076 16.9583 13.4062 16.9583C13.2049 16.9583 13.0278 16.8819 12.875 16.7292L10.75 14.5625V17.2708C10.75 17.4653 10.6736 17.6354 10.5208 17.7812C10.3681 17.9271 10.1944 18 10 18C9.79167 18 9.61458 17.9271 9.46875 17.7812C9.32292 17.6354 9.25 17.4583 9.25 17.25V14.5625Z" fill="#BAC8DE"/>
</g>
</g>
<defs>
<clipPath id="clip0_437_7885">
<rect width="20" height="20" fill="white"/>
</clipPath>
</defs>
</svg>
